PathFileType	4	(X/Y/Z)	OpenSim_Sub10_EMGStiffKnee_Magnet.trc
DataRate	CameraRate	NumFrames	NumMarkers	Units	OrigDataRate	OrigDataStartFrame	OrigNumFrames
100	100	20	8	m	100	3140	8371
Frame#	Time	torso_imu_offset_imu	pelvis_imu_offset_imu	tibia_r_imu_offset_imu	femur_r_imu_offset_imu	tibia_l_imu_offset_imu	femur_l_imu_offset_imu	toes_r_imu_offset_imu	toes_l_imu_offset_imu
				X1	Y1	Z1	X2	Y2	Z2	X3	Y3	Z3	X4	Y4	Z4	X5	Y5	Z5	X6	Y6	Z6	X7	Y7	Z7	X8		Y8	Z8	

3140	31.39000000	-0.93188500	-0.02954100	0.13183600	-0.62377900	0.02612300	-0.70605500	-0.21191400	-0.84692400	-0.17822300	-0.69751000	-0.47460900	-0.02807600	-0.69067400	0.35693400	0.23144500	-0.77685500	0.10229500	0.30590800	-0.72460900	-0.45385700	0.27343800	-0.68896500	-0.15820300	-0.40600600
3141	31.40000000	-0.93823200	-0.02978500	0.12744100	-0.61987300	0.03247100	-0.70874000	-0.19506800	-0.84912100	-0.16918900	-0.71484400	-0.46044900	-0.02636700	-0.68603500	0.34814500	0.23852500	-0.76611300	0.11547900	0.30346700	-0.70166000	-0.45776400	0.31103500	-0.68701200	-0.15380900	-0.40600600
3142	31.41000000	-0.93383800	-0.03173800	0.12524400	-0.62207000	0.03662100	-0.70654300	-0.17627000	-0.85107400	-0.17578100	-0.72998000	-0.44384800	-0.02246100	-0.68627900	0.36132800	0.23559600	-0.76904300	0.13696300	0.31005900	-0.68481400	-0.46167000	0.34252900	-0.68701200	-0.15380900	-0.40600600
3143	31.42000000	-0.93603500	-0.03173800	0.12963900	-0.62011700	0.04516600	-0.70678700	-0.16381800	-0.84887700	-0.17578100	-0.73046900	-0.42944300	-0.01391600	-0.68408200	0.36132800	0.23559600	-0.76538100	0.15454100	0.30102500	-0.66186500	-0.46557600	0.37182600	-0.68261700	-0.14917000	-0.40844700
3144	31.43000000	-0.93383800	-0.03393600	0.12304700	-0.62036100	0.05346700	-0.71167000	-0.14697300	-0.85107400	-0.18920900	-0.74340800	-0.41503900	-0.01464800	-0.68408200	0.36572300	0.24658200	-0.75952100	0.17627000	0.30737300	-0.63696300	-0.46728500	0.38452100	-0.68481400	-0.14941400	-0.40600600
3145	31.44000000	-0.93579100	-0.03808600	0.12329100	-0.61425800	0.05981400	-0.70727500	-0.13476600	-0.84252900	-0.19165000	-0.75463900	-0.38623000	-0.00878900	-0.67309600	0.37011700	0.24829100	-0.75561500	0.18945300	0.30737300	-0.63671900	-0.47143600	0.38037100	-0.68701200	-0.14941400	-0.40600600
3146	31.45000000	-0.92944300	-0.04003900	0.12353500	-0.61425800	0.06201200	-0.70727500	-0.13232400	-0.85107400	-0.19580100	-0.76342800	-0.37158200	-0.01391600	-0.67089800	0.37231400	0.26391600	-0.75610400	0.20898400	0.30029300	-0.62817400	-0.47924800	0.36181600	-0.68261700	-0.14941400	-0.40380900
3147	31.46000000	-0.93554700	-0.04663100	0.11914100	-0.61669900	0.06835900	-0.70752000	-0.12817400	-0.85107400	-0.19360400	-0.77465800	-0.34887700	-0.00805700	-0.66870100	0.37231400	0.26611300	-0.75415000	0.21533200	0.30249000	-0.63232400	-0.47729500	0.34521500	-0.69580100	-0.15380900	-0.40625000
3148	31.47000000	-0.93115200	-0.05078100	0.12158200	-0.61889600	0.07446300	-0.71020500	-0.12841800	-0.84252900	-0.19604500	-0.78564500	-0.33056600	0.00048800	-0.66650400	0.37670900	0.26806600	-0.75439500	0.22192400	0.29126000	-0.62597700	-0.47924800	0.32641600	-0.69604500	-0.14941400	-0.40625000
3149	31.48000000	-0.93310500	-0.05712900	0.12622100	-0.61694300	0.07666000	-0.71728500	-0.12402300	-0.84472700	-0.20507800	-0.78833000	-0.31396500	-0.00708000	-0.66430700	0.37890600	0.27465800	-0.75024400	0.22631800	0.30004900	-0.62597700	-0.48510700	0.31616200	-0.69604500	-0.15161100	-0.40625000
3150	31.49000000	-0.93066400	-0.06347700	0.12646500	-0.61474600	0.07470700	-0.71020500	-0.13061500	-0.83422900	-0.22778300	-0.79931600	-0.29736300	-0.00537100	-0.65966800	0.37231400	0.27954100	-0.74560500	0.22412100	0.30249000	-0.62793000	-0.48315400	0.29321300	-0.69580100	-0.15380900	-0.40161100
3151	31.50000000	-0.92846700	-0.06543000	0.12670900	-0.61499000	0.08496100	-0.70825200	-0.13696300	-0.83422900	-0.24121100	-0.80810500	-0.27685500	0.00073200	-0.65991200	0.38330100	0.28125000	-0.74365200	0.22851600	0.32031200	-0.63232400	-0.47900400	0.26806600	-0.70043900	-0.15380900	-0.40161100
3152	31.51000000	-0.92846700	-0.06762700	0.12451200	-0.61303700	0.08935500	-0.71069300	-0.14770500	-0.82153300	-0.27294900	-0.81079100	-0.26220700	-0.00000000	-0.65771500	0.38330100	0.28344700	-0.74340800	0.22216800	0.32031200	-0.63647500	-0.47485400	0.24292000	-0.70019500	-0.16040000	-0.39477500
3153	31.52000000	-0.92627000	-0.07397500	0.13134800	-0.61084000	0.09350600	-0.71093800	-0.16674800	-0.81323200	-0.28881800	-0.81518600	-0.25000000	0.00195300	-0.65112300	0.38745100	0.29199200	-0.74560500	0.21972700	0.32714800	-0.64477500	-0.47265600	0.21386700	-0.70019500	-0.15600600	-0.40161100
3154	31.53000000	-0.92602500	-0.07812500	0.13598600	-0.61767600	0.09985400	-0.70654300	-0.18383800	-0.80493200	-0.30029300	-0.82421900	-0.22924800	0.00341800	-0.65112300	0.38745100	0.29199200	-0.73901400	0.21997100	0.33398400	-0.64697300	-0.46655300	0.18457000	-0.70703100	-0.15405300	-0.39721700
3155	31.54000000	-0.92822300	-0.07812500	0.14038100	-0.60717800	0.10815400	-0.70434600	-0.20898400	-0.79858400	-0.30737300	-0.82885700	-0.21679700	0.00512700	-0.64697300	0.39648400	0.28930700	-0.73242200	0.22656200	0.34716800	-0.65356400	-0.45410200	0.14892600	-0.69995100	-0.16259800	-0.39477500
3156	31.55000000	-0.92382800	-0.08032200	0.14038100	-0.60742200	0.11669900	-0.71167000	-0.23852500	-0.79443400	-0.31201200	-0.83129900	-0.20849600	0.00268600	-0.64697300	0.40087900	0.28686500	-0.73071300	0.23535200	0.33813500	-0.65991200	-0.44995100	0.11352500	-0.70678700	-0.16064500	-0.39477500
3157	31.56000000	-0.92578100	-0.09082000	0.14306600	-0.60742200	0.11865200	-0.70947300	-0.26806600	-0.78198200	-0.30786100	-0.83374000	-0.19213900	0.00659200	-0.64257800	0.40283200	0.29785200	-0.72851600	0.23535200	0.34033200	-0.65795900	-0.44165000	0.08618200	-0.69995100	-0.16259800	-0.39721700
3158	31.57000000	-0.92578100	-0.08886700	0.14526400	-0.60766600	0.12939500	-0.71679700	-0.29956100	-0.77587900	-0.30590800	-0.84228500	-0.18579100	0.00634800	-0.64502000	0.40722700	0.29980500	-0.72436500	0.24609400	0.34252900	-0.66845700	-0.43554700	0.04443400	-0.70874000	-0.17163100	-0.39038100
3159	31.58000000	-0.92358400	-0.09301800	0.14331100	-0.60156200	0.13769500	-0.71728500	-0.33349600	-0.76342800	-0.30639600	-0.84497100	-0.16723600	0.01464800	-0.63378900	0.40747100	0.29980500	-0.72241200	0.25708000	0.34252900	-0.67065400	-0.42919900	0.01928700	-0.70166000	-0.17602500	-0.39257800
